<?xml version="1.0" encoding="UTF-8"?>
<!DOCTYPE score-partwise PUBLIC "-//Recordare//DTD MusicXML 3.1 Partwise//EN" "http://www.musicxml.org/dtds/partwise.dtd">
<score-partwise version="3.1">
  <work>
    <work-title>[Test] Guitar Techniques</work-title>
    </work>
  <identification>
    <encoding>
      <software>MuseScore 3.5.0</software>
      <encoding-date>2020-08-18</encoding-date>
      <supports element="accidental" type="yes"/>
      <supports element="beam" type="yes"/>
      <supports element="print" attribute="new-page" type="yes" value="yes"/>
      <supports element="print" attribute="new-system" type="yes" value="yes"/>
      <supports element="stem" type="yes"/>
      </encoding>
    </identification>
  <defaults>
    <scaling>
      <millimeters>7.05556</millimeters>
      <tenths>40</tenths>
      </scaling>
    <page-layout>
      <page-height>1683.36</page-height>
      <page-width>1190.88</page-width>
      <page-margins type="even">
        <left-margin>56.6929</left-margin>
        <right-margin>56.6929</right-margin>
        <top-margin>56.6929</top-margin>
        <bottom-margin>113.386</bottom-margin>
        </page-margins>
      <page-margins type="odd">
        <left-margin>56.6929</left-margin>
        <right-margin>56.6929</right-margin>
        <top-margin>56.6929</top-margin>
        <bottom-margin>113.386</bottom-margin>
        </page-margins>
      </page-layout>
    <word-font font-family="FreeSerif" font-size="10"/>
    <lyric-font font-family="FreeSerif" font-size="11"/>
    </defaults>
  <credit page="1">
    <credit-words default-x="595.44" default-y="1626.67" justify="center" valign="top" font-size="24">[Test] Guitar Techniques</credit-words>
    </credit>
  <part-list>
    <part-group type="start" number="1">
      <group-symbol>none</group-symbol>
      </part-group>
    <score-part id="P1">
      <part-name>Guitar</part-name>
      <part-abbreviation>Guit.</part-abbreviation>
      <score-instrument id="P1-I1">
        <instrument-name>Classical Guitar</instrument-name>
        </score-instrument>
      <midi-device id="P1-I1" port="1"></midi-device>
      <midi-instrument id="P1-I1">
        <midi-channel>1</midi-channel>
        <midi-program>25</midi-program>
        <volume>78.7402</volume>
        <pan>0</pan>
        </midi-instrument>
      </score-part>
    <part-group type="stop" number="1"/>
    </part-list>
  <part id="P1">
    <measure number="1" width="238.64">
      <print>
        <system-layout>
          <system-margins>
            <left-margin>0.00</left-margin>
            <right-margin>0.00</right-margin>
            </system-margins>
          <top-system-distance>170.00</top-system-distance>
          </system-layout>
        <staff-layout number="2">
          <staff-distance>66.60</staff-distance>
          </staff-layout>
        </print>
      <attributes>
        <divisions>2</divisions>
        <key>
          <fifths>0</fifths>
          </key>
        <time>
          <beats>4</beats>
          <beat-type>4</beat-type>
          </time>
        <staves>2</staves>
        <clef number="1">
          <sign>G</sign>
          <line>2</line>
          <clef-octave-change>-1</clef-octave-change>
          </clef>
        <clef number="2">
          <sign>TAB</sign>
          <line>5</line>
          </clef>
        <staff-details number="2">
          <staff-lines>6</staff-lines>
          <staff-tuning line="1">
            <tuning-step>E</tuning-step>
            <tuning-octave>2</tuning-octave>
            </staff-tuning>
          <staff-tuning line="2">
            <tuning-step>A</tuning-step>
            <tuning-octave>2</tuning-octave>
            </staff-tuning>
          <staff-tuning line="3">
            <tuning-step>D</tuning-step>
            <tuning-octave>3</tuning-octave>
            </staff-tuning>
          <staff-tuning line="4">
            <tuning-step>G</tuning-step>
            <tuning-octave>3</tuning-octave>
            </staff-tuning>
          <staff-tuning line="5">
            <tuning-step>B</tuning-step>
            <tuning-octave>3</tuning-octave>
            </staff-tuning>
          <staff-tuning line="6">
            <tuning-step>E</tuning-step>
            <tuning-octave>4</tuning-octave>
            </staff-tuning>
          </staff-details>
        </attributes>
      <direction placement="above">
        <direction-type>
          <words relative-y="20.00">Once with palm mute, once without</words>
          </direction-type>
        <staff>1</staff>
        </direction>
      <direction placement="below">
        <direction-type>
          <words>P.M.</words>
          </direction-type>
        <direction-type>
          <bracket type="start" number="1" line-end="none" line-type="dashed" default-y="-92.90"/>
          </direction-type>
        <staff>1</staff>
        </direction>
      <note default-x="84.67" default-y="-75.00">
        <pitch>
          <step>E</step>
          <octave>2</octave>
          </pitch>
        <duration>2</duration>
        <voice>1</voice>
        <type>quarter</type>
        <stem>up</stem>
        <staff>1</staff>
        </note>
      <note default-x="122.76" default-y="-75.00">
        <pitch>
          <step>E</step>
          <octave>2</octave>
          </pitch>
        <duration>2</duration>
        <voice>1</voice>
        <type>quarter</type>
        <stem>up</stem>
        <staff>1</staff>
        </note>
      <note default-x="160.85" default-y="-75.00">
        <pitch>
          <step>E</step>
          <octave>2</octave>
          </pitch>
        <duration>2</duration>
        <voice>1</voice>
        <type>quarter</type>
        <stem>up</stem>
        <staff>1</staff>
        </note>
      <note default-x="198.95" default-y="-75.00">
        <pitch>
          <step>E</step>
          <octave>2</octave>
          </pitch>
        <duration>2</duration>
        <voice>1</voice>
        <type>quarter</type>
        <stem>up</stem>
        <staff>1</staff>
        </note>
      <backup>
        <duration>8</duration>
        </backup>
      <note default-x="87.17" default-y="-181.60">
        <pitch>
          <step>E</step>
          <octave>2</octave>
          </pitch>
        <duration>2</duration>
        <voice>5</voice>
        <type>quarter</type>
        <stem>none</stem>
        <staff>2</staff>
        <notations>
          <technical>
            <string>6</string>
            <fret>0</fret>
            </technical>
          </notations>
        </note>
      <note default-x="125.26" default-y="-181.60">
        <pitch>
          <step>E</step>
          <octave>2</octave>
          </pitch>
        <duration>2</duration>
        <voice>5</voice>
        <type>quarter</type>
        <stem>none</stem>
        <staff>2</staff>
        <notations>
          <technical>
            <string>6</string>
            <fret>0</fret>
            </technical>
          </notations>
        </note>
      <note default-x="163.35" default-y="-181.60">
        <pitch>
          <step>E</step>
          <octave>2</octave>
          </pitch>
        <duration>2</duration>
        <voice>5</voice>
        <type>quarter</type>
        <stem>none</stem>
        <staff>2</staff>
        <notations>
          <technical>
            <string>6</string>
            <fret>0</fret>
            </technical>
          </notations>
        </note>
      <note default-x="201.45" default-y="-181.60">
        <pitch>
          <step>E</step>
          <octave>2</octave>
          </pitch>
        <duration>2</duration>
        <voice>5</voice>
        <type>quarter</type>
        <stem>none</stem>
        <staff>2</staff>
        <notations>
          <technical>
            <string>6</string>
            <fret>0</fret>
            </technical>
          </notations>
        </note>
      </measure>
    <measure number="2" width="167.77">
      <note default-x="13.80" default-y="-75.00">
        <pitch>
          <step>E</step>
          <octave>2</octave>
          </pitch>
        <duration>2</duration>
        <voice>1</voice>
        <type>quarter</type>
        <stem>up</stem>
        <staff>1</staff>
        </note>
      <note default-x="13.80" default-y="-60.00">
        <chord/>
        <pitch>
          <step>A</step>
          <octave>2</octave>
          </pitch>
        <duration>2</duration>
        <voice>1</voice>
        <type>quarter</type>
        <stem>up</stem>
        <staff>1</staff>
        </note>
      <note default-x="51.89" default-y="-75.00">
        <pitch>
          <step>E</step>
          <octave>2</octave>
          </pitch>
        <duration>2</duration>
        <voice>1</voice>
        <type>quarter</type>
        <stem>up</stem>
        <staff>1</staff>
        </note>
      <note default-x="51.89" default-y="-60.00">
        <chord/>
        <pitch>
          <step>A</step>
          <octave>2</octave>
          </pitch>
        <duration>2</duration>
        <voice>1</voice>
        <type>quarter</type>
        <stem>up</stem>
        <staff>1</staff>
        </note>
      <note default-x="89.99" default-y="-75.00">
        <pitch>
          <step>E</step>
          <octave>2</octave>
          </pitch>
        <duration>2</duration>
        <voice>1</voice>
        <type>quarter</type>
        <stem>up</stem>
        <staff>1</staff>
        </note>
      <note default-x="89.99" default-y="-60.00">
        <chord/>
        <pitch>
          <step>A</step>
          <octave>2</octave>
          </pitch>
        <duration>2</duration>
        <voice>1</voice>
        <type>quarter</type>
        <stem>up</stem>
        <staff>1</staff>
        </note>
      <note default-x="128.08" default-y="-75.00">
        <pitch>
          <step>E</step>
          <octave>2</octave>
          </pitch>
        <duration>2</duration>
        <voice>1</voice>
        <type>quarter</type>
        <stem>up</stem>
        <staff>1</staff>
        </note>
      <note default-x="128.08" default-y="-60.00">
        <chord/>
        <pitch>
          <step>A</step>
          <octave>2</octave>
          </pitch>
        <duration>2</duration>
        <voice>1</voice>
        <type>quarter</type>
        <stem>up</stem>
        <staff>1</staff>
        </note>
      <backup>
        <duration>8</duration>
        </backup>
      <note default-x="16.30" default-y="-181.60">
        <pitch>
          <step>E</step>
          <octave>2</octave>
          </pitch>
        <duration>2</duration>
        <voice>5</voice>
        <type>quarter</type>
        <stem>none</stem>
        <staff>2</staff>
        <notations>
          <technical>
            <string>6</string>
            <fret>0</fret>
            </technical>
          </notations>
        </note>
      <note default-x="16.30" default-y="-166.60">
        <chord/>
        <pitch>
          <step>A</step>
          <octave>2</octave>
          </pitch>
        <duration>2</duration>
        <voice>5</voice>
        <type>quarter</type>
        <stem>none</stem>
        <staff>2</staff>
        <notations>
          <technical>
            <string>5</string>
            <fret>0</fret>
            </technical>
          </notations>
        </note>
      <note default-x="54.39" default-y="-181.60">
        <pitch>
          <step>E</step>
          <octave>2</octave>
          </pitch>
        <duration>2</duration>
        <voice>5</voice>
        <type>quarter</type>
        <stem>none</stem>
        <staff>2</staff>
        <notations>
          <technical>
            <string>6</string>
            <fret>0</fret>
            </technical>
          </notations>
        </note>
      <note default-x="54.39" default-y="-166.60">
        <chord/>
        <pitch>
          <step>A</step>
          <octave>2</octave>
          </pitch>
        <duration>2</duration>
        <voice>5</voice>
        <type>quarter</type>
        <stem>none</stem>
        <staff>2</staff>
        <notations>
          <technical>
            <string>5</string>
            <fret>0</fret>
            </technical>
          </notations>
        </note>
      <note default-x="92.49" default-y="-181.60">
        <pitch>
          <step>E</step>
          <octave>2</octave>
          </pitch>
        <duration>2</duration>
        <voice>5</voice>
        <type>quarter</type>
        <stem>none</stem>
        <staff>2</staff>
        <notations>
          <technical>
            <string>6</string>
            <fret>0</fret>
            </technical>
          </notations>
        </note>
      <note default-x="92.49" default-y="-166.60">
        <chord/>
        <pitch>
          <step>A</step>
          <octave>2</octave>
          </pitch>
        <duration>2</duration>
        <voice>5</voice>
        <type>quarter</type>
        <stem>none</stem>
        <staff>2</staff>
        <notations>
          <technical>
            <string>5</string>
            <fret>0</fret>
            </technical>
          </notations>
        </note>
      <note default-x="130.58" default-y="-181.60">
        <pitch>
          <step>E</step>
          <octave>2</octave>
          </pitch>
        <duration>2</duration>
        <voice>5</voice>
        <type>quarter</type>
        <stem>none</stem>
        <staff>2</staff>
        <notations>
          <technical>
            <string>6</string>
            <fret>0</fret>
            </technical>
          </notations>
        </note>
      <note default-x="130.58" default-y="-166.60">
        <chord/>
        <pitch>
          <step>A</step>
          <octave>2</octave>
          </pitch>
        <duration>2</duration>
        <voice>5</voice>
        <type>quarter</type>
        <stem>none</stem>
        <staff>2</staff>
        <notations>
          <technical>
            <string>5</string>
            <fret>0</fret>
            </technical>
          </notations>
        </note>
      </measure>
    <measure number="3" width="167.77">
      <note default-x="13.80" default-y="-75.00">
        <pitch>
          <step>E</step>
          <octave>2</octave>
          </pitch>
        <duration>2</duration>
        <voice>1</voice>
        <type>quarter</type>
        <stem>up</stem>
        <staff>1</staff>
        </note>
      <note default-x="13.80" default-y="-60.00">
        <chord/>
        <pitch>
          <step>A</step>
          <octave>2</octave>
          </pitch>
        <duration>2</duration>
        <voice>1</voice>
        <type>quarter</type>
        <stem>up</stem>
        <staff>1</staff>
        </note>
      <note default-x="13.80" default-y="-45.00">
        <chord/>
        <pitch>
          <step>D</step>
          <octave>3</octave>
          </pitch>
        <duration>2</duration>
        <voice>1</voice>
        <type>quarter</type>
        <stem>up</stem>
        <staff>1</staff>
        </note>
      <note default-x="51.89" default-y="-75.00">
        <pitch>
          <step>E</step>
          <octave>2</octave>
          </pitch>
        <duration>2</duration>
        <voice>1</voice>
        <type>quarter</type>
        <stem>up</stem>
        <staff>1</staff>
        </note>
      <note default-x="51.89" default-y="-60.00">
        <chord/>
        <pitch>
          <step>A</step>
          <octave>2</octave>
          </pitch>
        <duration>2</duration>
        <voice>1</voice>
        <type>quarter</type>
        <stem>up</stem>
        <staff>1</staff>
        </note>
      <note default-x="51.89" default-y="-45.00">
        <chord/>
        <pitch>
          <step>D</step>
          <octave>3</octave>
          </pitch>
        <duration>2</duration>
        <voice>1</voice>
        <type>quarter</type>
        <stem>up</stem>
        <staff>1</staff>
        </note>
      <note default-x="89.99" default-y="-75.00">
        <pitch>
          <step>E</step>
          <octave>2</octave>
          </pitch>
        <duration>2</duration>
        <voice>1</voice>
        <type>quarter</type>
        <stem>up</stem>
        <staff>1</staff>
        </note>
      <note default-x="89.99" default-y="-60.00">
        <chord/>
        <pitch>
          <step>A</step>
          <octave>2</octave>
          </pitch>
        <duration>2</duration>
        <voice>1</voice>
        <type>quarter</type>
        <stem>up</stem>
        <staff>1</staff>
        </note>
      <note default-x="89.99" default-y="-45.00">
        <chord/>
        <pitch>
          <step>D</step>
          <octave>3</octave>
          </pitch>
        <duration>2</duration>
        <voice>1</voice>
        <type>quarter</type>
        <stem>up</stem>
        <staff>1</staff>
        </note>
      <note default-x="128.08" default-y="-75.00">
        <pitch>
          <step>E</step>
          <octave>2</octave>
          </pitch>
        <duration>2</duration>
        <voice>1</voice>
        <type>quarter</type>
        <stem>up</stem>
        <staff>1</staff>
        </note>
      <note default-x="128.08" default-y="-60.00">
        <chord/>
        <pitch>
          <step>A</step>
          <octave>2</octave>
          </pitch>
        <duration>2</duration>
        <voice>1</voice>
        <type>quarter</type>
        <stem>up</stem>
        <staff>1</staff>
        </note>
      <note default-x="128.08" default-y="-45.00">
        <chord/>
        <pitch>
          <step>D</step>
          <octave>3</octave>
          </pitch>
        <duration>2</duration>
        <voice>1</voice>
        <type>quarter</type>
        <stem>up</stem>
        <staff>1</staff>
        </note>
      <direction placement="below">
        <direction-type>
          <bracket type="stop" number="1" line-end="down" end-length="6" relative-x="8.29"/>
          </direction-type>
        <staff>1</staff>
        </direction>
      <backup>
        <duration>8</duration>
        </backup>
      <note default-x="16.30" default-y="-181.60">
        <pitch>
          <step>E</step>
          <octave>2</octave>
          </pitch>
        <duration>2</duration>
        <voice>5</voice>
        <type>quarter</type>
        <stem>none</stem>
        <staff>2</staff>
        <notations>
          <technical>
            <string>6</string>
            <fret>0</fret>
            </technical>
          </notations>
        </note>
      <note default-x="16.30" default-y="-166.60">
        <chord/>
        <pitch>
          <step>A</step>
          <octave>2</octave>
          </pitch>
        <duration>2</duration>
        <voice>5</voice>
        <type>quarter</type>
        <stem>none</stem>
        <staff>2</staff>
        <notations>
          <technical>
            <string>5</string>
            <fret>0</fret>
            </technical>
          </notations>
        </note>
      <note default-x="16.30" default-y="-151.60">
        <chord/>
        <pitch>
          <step>D</step>
          <octave>3</octave>
          </pitch>
        <duration>2</duration>
        <voice>5</voice>
        <type>quarter</type>
        <stem>none</stem>
        <staff>2</staff>
        <notations>
          <technical>
            <string>4</string>
            <fret>0</fret>
            </technical>
          </notations>
        </note>
      <note default-x="54.39" default-y="-181.60">
        <pitch>
          <step>E</step>
          <octave>2</octave>
          </pitch>
        <duration>2</duration>
        <voice>5</voice>
        <type>quarter</type>
        <stem>none</stem>
        <staff>2</staff>
        <notations>
          <technical>
            <string>6</string>
            <fret>0</fret>
            </technical>
          </notations>
        </note>
      <note default-x="54.39" default-y="-166.60">
        <chord/>
        <pitch>
          <step>A</step>
          <octave>2</octave>
          </pitch>
        <duration>2</duration>
        <voice>5</voice>
        <type>quarter</type>
        <stem>none</stem>
        <staff>2</staff>
        <notations>
          <technical>
            <string>5</string>
            <fret>0</fret>
            </technical>
          </notations>
        </note>
      <note default-x="54.39" default-y="-151.60">
        <chord/>
        <pitch>
          <step>D</step>
          <octave>3</octave>
          </pitch>
        <duration>2</duration>
        <voice>5</voice>
        <type>quarter</type>
        <stem>none</stem>
        <staff>2</staff>
        <notations>
          <technical>
            <string>4</string>
            <fret>0</fret>
            </technical>
          </notations>
        </note>
      <note default-x="92.49" default-y="-181.60">
        <pitch>
          <step>E</step>
          <octave>2</octave>
          </pitch>
        <duration>2</duration>
        <voice>5</voice>
        <type>quarter</type>
        <stem>none</stem>
        <staff>2</staff>
        <notations>
          <technical>
            <string>6</string>
            <fret>0</fret>
            </technical>
          </notations>
        </note>
      <note default-x="92.49" default-y="-166.60">
        <chord/>
        <pitch>
          <step>A</step>
          <octave>2</octave>
          </pitch>
        <duration>2</duration>
        <voice>5</voice>
        <type>quarter</type>
        <stem>none</stem>
        <staff>2</staff>
        <notations>
          <technical>
            <string>5</string>
            <fret>0</fret>
            </technical>
          </notations>
        </note>
      <note default-x="92.49" default-y="-151.60">
        <chord/>
        <pitch>
          <step>D</step>
          <octave>3</octave>
          </pitch>
        <duration>2</duration>
        <voice>5</voice>
        <type>quarter</type>
        <stem>none</stem>
        <staff>2</staff>
        <notations>
          <technical>
            <string>4</string>
            <fret>0</fret>
            </technical>
          </notations>
        </note>
      <note default-x="130.58" default-y="-181.60">
        <pitch>
          <step>E</step>
          <octave>2</octave>
          </pitch>
        <duration>2</duration>
        <voice>5</voice>
        <type>quarter</type>
        <stem>none</stem>
        <staff>2</staff>
        <notations>
          <technical>
            <string>6</string>
            <fret>0</fret>
            </technical>
          </notations>
        </note>
      <note default-x="130.58" default-y="-166.60">
        <chord/>
        <pitch>
          <step>A</step>
          <octave>2</octave>
          </pitch>
        <duration>2</duration>
        <voice>5</voice>
        <type>quarter</type>
        <stem>none</stem>
        <staff>2</staff>
        <notations>
          <technical>
            <string>5</string>
            <fret>0</fret>
            </technical>
          </notations>
        </note>
      <note default-x="130.58" default-y="-151.60">
        <chord/>
        <pitch>
          <step>D</step>
          <octave>3</octave>
          </pitch>
        <duration>2</duration>
        <voice>5</voice>
        <type>quarter</type>
        <stem>none</stem>
        <staff>2</staff>
        <notations>
          <technical>
            <string>4</string>
            <fret>0</fret>
            </technical>
          </notations>
        </note>
      </measure>
    <measure number="4" width="167.77">
      <note default-x="13.80" default-y="-75.00">
        <pitch>
          <step>E</step>
          <octave>2</octave>
          </pitch>
        <duration>2</duration>
        <voice>1</voice>
        <type>quarter</type>
        <stem>up</stem>
        <staff>1</staff>
        </note>
      <note default-x="51.89" default-y="-75.00">
        <pitch>
          <step>E</step>
          <octave>2</octave>
          </pitch>
        <duration>2</duration>
        <voice>1</voice>
        <type>quarter</type>
        <stem>up</stem>
        <staff>1</staff>
        </note>
      <note default-x="89.99" default-y="-75.00">
        <pitch>
          <step>E</step>
          <octave>2</octave>
          </pitch>
        <duration>2</duration>
        <voice>1</voice>
        <type>quarter</type>
        <stem>up</stem>
        <staff>1</staff>
        </note>
      <note default-x="128.08" default-y="-75.00">
        <pitch>
          <step>E</step>
          <octave>2</octave>
          </pitch>
        <duration>2</duration>
        <voice>1</voice>
        <type>quarter</type>
        <stem>up</stem>
        <staff>1</staff>
        </note>
      <backup>
        <duration>8</duration>
        </backup>
      <note default-x="16.30" default-y="-181.60">
        <pitch>
          <step>E</step>
          <octave>2</octave>
          </pitch>
        <duration>2</duration>
        <voice>5</voice>
        <type>quarter</type>
        <stem>none</stem>
        <staff>2</staff>
        <notations>
          <technical>
            <string>6</string>
            <fret>0</fret>
            </technical>
          </notations>
        </note>
      <note default-x="54.39" default-y="-181.60">
        <pitch>
          <step>E</step>
          <octave>2</octave>
          </pitch>
        <duration>2</duration>
        <voice>5</voice>
        <type>quarter</type>
        <stem>none</stem>
        <staff>2</staff>
        <notations>
          <technical>
            <string>6</string>
            <fret>0</fret>
            </technical>
          </notations>
        </note>
      <note default-x="92.49" default-y="-181.60">
        <pitch>
          <step>E</step>
          <octave>2</octave>
          </pitch>
        <duration>2</duration>
        <voice>5</voice>
        <type>quarter</type>
        <stem>none</stem>
        <staff>2</staff>
        <notations>
          <technical>
            <string>6</string>
            <fret>0</fret>
            </technical>
          </notations>
        </note>
      <note default-x="130.58" default-y="-181.60">
        <pitch>
          <step>E</step>
          <octave>2</octave>
          </pitch>
        <duration>2</duration>
        <voice>5</voice>
        <type>quarter</type>
        <stem>none</stem>
        <staff>2</staff>
        <notations>
          <technical>
            <string>6</string>
            <fret>0</fret>
            </technical>
          </notations>
        </note>
      </measure>
    <measure number="5" width="167.77">
      <note default-x="13.80" default-y="-75.00">
        <pitch>
          <step>E</step>
          <octave>2</octave>
          </pitch>
        <duration>2</duration>
        <voice>1</voice>
        <type>quarter</type>
        <stem>up</stem>
        <staff>1</staff>
        </note>
      <note default-x="13.80" default-y="-60.00">
        <chord/>
        <pitch>
          <step>A</step>
          <octave>2</octave>
          </pitch>
        <duration>2</duration>
        <voice>1</voice>
        <type>quarter</type>
        <stem>up</stem>
        <staff>1</staff>
        </note>
      <note default-x="51.89" default-y="-75.00">
        <pitch>
          <step>E</step>
          <octave>2</octave>
          </pitch>
        <duration>2</duration>
        <voice>1</voice>
        <type>quarter</type>
        <stem>up</stem>
        <staff>1</staff>
        </note>
      <note default-x="51.89" default-y="-60.00">
        <chord/>
        <pitch>
          <step>A</step>
          <octave>2</octave>
          </pitch>
        <duration>2</duration>
        <voice>1</voice>
        <type>quarter</type>
        <stem>up</stem>
        <staff>1</staff>
        </note>
      <note default-x="89.99" default-y="-75.00">
        <pitch>
          <step>E</step>
          <octave>2</octave>
          </pitch>
        <duration>2</duration>
        <voice>1</voice>
        <type>quarter</type>
        <stem>up</stem>
        <staff>1</staff>
        </note>
      <note default-x="89.99" default-y="-60.00">
        <chord/>
        <pitch>
          <step>A</step>
          <octave>2</octave>
          </pitch>
        <duration>2</duration>
        <voice>1</voice>
        <type>quarter</type>
        <stem>up</stem>
        <staff>1</staff>
        </note>
      <note default-x="128.08" default-y="-75.00">
        <pitch>
          <step>E</step>
          <octave>2</octave>
          </pitch>
        <duration>2</duration>
        <voice>1</voice>
        <type>quarter</type>
        <stem>up</stem>
        <staff>1</staff>
        </note>
      <note default-x="128.08" default-y="-60.00">
        <chord/>
        <pitch>
          <step>A</step>
          <octave>2</octave>
          </pitch>
        <duration>2</duration>
        <voice>1</voice>
        <type>quarter</type>
        <stem>up</stem>
        <staff>1</staff>
        </note>
      <backup>
        <duration>8</duration>
        </backup>
      <note default-x="16.30" default-y="-181.60">
        <pitch>
          <step>E</step>
          <octave>2</octave>
          </pitch>
        <duration>2</duration>
        <voice>5</voice>
        <type>quarter</type>
        <stem>none</stem>
        <staff>2</staff>
        <notations>
          <technical>
            <string>6</string>
            <fret>0</fret>
            </technical>
          </notations>
        </note>
      <note default-x="16.30" default-y="-166.60">
        <chord/>
        <pitch>
          <step>A</step>
          <octave>2</octave>
          </pitch>
        <duration>2</duration>
        <voice>5</voice>
        <type>quarter</type>
        <stem>none</stem>
        <staff>2</staff>
        <notations>
          <technical>
            <string>5</string>
            <fret>0</fret>
            </technical>
          </notations>
        </note>
      <note default-x="54.39" default-y="-181.60">
        <pitch>
          <step>E</step>
          <octave>2</octave>
          </pitch>
        <duration>2</duration>
        <voice>5</voice>
        <type>quarter</type>
        <stem>none</stem>
        <staff>2</staff>
        <notations>
          <technical>
            <string>6</string>
            <fret>0</fret>
            </technical>
          </notations>
        </note>
      <note default-x="54.39" default-y="-166.60">
        <chord/>
        <pitch>
          <step>A</step>
          <octave>2</octave>
          </pitch>
        <duration>2</duration>
        <voice>5</voice>
        <type>quarter</type>
        <stem>none</stem>
        <staff>2</staff>
        <notations>
          <technical>
            <string>5</string>
            <fret>0</fret>
            </technical>
          </notations>
        </note>
      <note default-x="92.49" default-y="-181.60">
        <pitch>
          <step>E</step>
          <octave>2</octave>
          </pitch>
        <duration>2</duration>
        <voice>5</voice>
        <type>quarter</type>
        <stem>none</stem>
        <staff>2</staff>
        <notations>
          <technical>
            <string>6</string>
            <fret>0</fret>
            </technical>
          </notations>
        </note>
      <note default-x="92.49" default-y="-166.60">
        <chord/>
        <pitch>
          <step>A</step>
          <octave>2</octave>
          </pitch>
        <duration>2</duration>
        <voice>5</voice>
        <type>quarter</type>
        <stem>none</stem>
        <staff>2</staff>
        <notations>
          <technical>
            <string>5</string>
            <fret>0</fret>
            </technical>
          </notations>
        </note>
      <note default-x="130.58" default-y="-181.60">
        <pitch>
          <step>E</step>
          <octave>2</octave>
          </pitch>
        <duration>2</duration>
        <voice>5</voice>
        <type>quarter</type>
        <stem>none</stem>
        <staff>2</staff>
        <notations>
          <technical>
            <string>6</string>
            <fret>0</fret>
            </technical>
          </notations>
        </note>
      <note default-x="130.58" default-y="-166.60">
        <chord/>
        <pitch>
          <step>A</step>
          <octave>2</octave>
          </pitch>
        <duration>2</duration>
        <voice>5</voice>
        <type>quarter</type>
        <stem>none</stem>
        <staff>2</staff>
        <notations>
          <technical>
            <string>5</string>
            <fret>0</fret>
            </technical>
          </notations>
        </note>
      </measure>
    <measure number="6" width="167.77">
      <note default-x="13.80" default-y="-75.00">
        <pitch>
          <step>E</step>
          <octave>2</octave>
          </pitch>
        <duration>2</duration>
        <voice>1</voice>
        <type>quarter</type>
        <stem>up</stem>
        <staff>1</staff>
        </note>
      <note default-x="13.80" default-y="-60.00">
        <chord/>
        <pitch>
          <step>A</step>
          <octave>2</octave>
          </pitch>
        <duration>2</duration>
        <voice>1</voice>
        <type>quarter</type>
        <stem>up</stem>
        <staff>1</staff>
        </note>
      <note default-x="13.80" default-y="-45.00">
        <chord/>
        <pitch>
          <step>D</step>
          <octave>3</octave>
          </pitch>
        <duration>2</duration>
        <voice>1</voice>
        <type>quarter</type>
        <stem>up</stem>
        <staff>1</staff>
        </note>
      <note default-x="51.89" default-y="-75.00">
        <pitch>
          <step>E</step>
          <octave>2</octave>
          </pitch>
        <duration>2</duration>
        <voice>1</voice>
        <type>quarter</type>
        <stem>up</stem>
        <staff>1</staff>
        </note>
      <note default-x="51.89" default-y="-60.00">
        <chord/>
        <pitch>
          <step>A</step>
          <octave>2</octave>
          </pitch>
        <duration>2</duration>
        <voice>1</voice>
        <type>quarter</type>
        <stem>up</stem>
        <staff>1</staff>
        </note>
      <note default-x="51.89" default-y="-45.00">
        <chord/>
        <pitch>
          <step>D</step>
          <octave>3</octave>
          </pitch>
        <duration>2</duration>
        <voice>1</voice>
        <type>quarter</type>
        <stem>up</stem>
        <staff>1</staff>
        </note>
      <note default-x="89.99" default-y="-75.00">
        <pitch>
          <step>E</step>
          <octave>2</octave>
          </pitch>
        <duration>2</duration>
        <voice>1</voice>
        <type>quarter</type>
        <stem>up</stem>
        <staff>1</staff>
        </note>
      <note default-x="89.99" default-y="-60.00">
        <chord/>
        <pitch>
          <step>A</step>
          <octave>2</octave>
          </pitch>
        <duration>2</duration>
        <voice>1</voice>
        <type>quarter</type>
        <stem>up</stem>
        <staff>1</staff>
        </note>
      <note default-x="89.99" default-y="-45.00">
        <chord/>
        <pitch>
          <step>D</step>
          <octave>3</octave>
          </pitch>
        <duration>2</duration>
        <voice>1</voice>
        <type>quarter</type>
        <stem>up</stem>
        <staff>1</staff>
        </note>
      <note default-x="128.08" default-y="-75.00">
        <pitch>
          <step>E</step>
          <octave>2</octave>
          </pitch>
        <duration>2</duration>
        <voice>1</voice>
        <type>quarter</type>
        <stem>up</stem>
        <staff>1</staff>
        </note>
      <note default-x="128.08" default-y="-60.00">
        <chord/>
        <pitch>
          <step>A</step>
          <octave>2</octave>
          </pitch>
        <duration>2</duration>
        <voice>1</voice>
        <type>quarter</type>
        <stem>up</stem>
        <staff>1</staff>
        </note>
      <note default-x="128.08" default-y="-45.00">
        <chord/>
        <pitch>
          <step>D</step>
          <octave>3</octave>
          </pitch>
        <duration>2</duration>
        <voice>1</voice>
        <type>quarter</type>
        <stem>up</stem>
        <staff>1</staff>
        </note>
      <backup>
        <duration>8</duration>
        </backup>
      <note default-x="16.30" default-y="-181.60">
        <pitch>
          <step>E</step>
          <octave>2</octave>
          </pitch>
        <duration>2</duration>
        <voice>5</voice>
        <type>quarter</type>
        <stem>none</stem>
        <staff>2</staff>
        <notations>
          <technical>
            <string>6</string>
            <fret>0</fret>
            </technical>
          </notations>
        </note>
      <note default-x="16.30" default-y="-166.60">
        <chord/>
        <pitch>
          <step>A</step>
          <octave>2</octave>
          </pitch>
        <duration>2</duration>
        <voice>5</voice>
        <type>quarter</type>
        <stem>none</stem>
        <staff>2</staff>
        <notations>
          <technical>
            <string>5</string>
            <fret>0</fret>
            </technical>
          </notations>
        </note>
      <note default-x="16.30" default-y="-151.60">
        <chord/>
        <pitch>
          <step>D</step>
          <octave>3</octave>
          </pitch>
        <duration>2</duration>
        <voice>5</voice>
        <type>quarter</type>
        <stem>none</stem>
        <staff>2</staff>
        <notations>
          <technical>
            <string>4</string>
            <fret>0</fret>
            </technical>
          </notations>
        </note>
      <note default-x="54.39" default-y="-181.60">
        <pitch>
          <step>E</step>
          <octave>2</octave>
          </pitch>
        <duration>2</duration>
        <voice>5</voice>
        <type>quarter</type>
        <stem>none</stem>
        <staff>2</staff>
        <notations>
          <technical>
            <string>6</string>
            <fret>0</fret>
            </technical>
          </notations>
        </note>
      <note default-x="54.39" default-y="-166.60">
        <chord/>
        <pitch>
          <step>A</step>
          <octave>2</octave>
          </pitch>
        <duration>2</duration>
        <voice>5</voice>
        <type>quarter</type>
        <stem>none</stem>
        <staff>2</staff>
        <notations>
          <technical>
            <string>5</string>
            <fret>0</fret>
            </technical>
          </notations>
        </note>
      <note default-x="54.39" default-y="-151.60">
        <chord/>
        <pitch>
          <step>D</step>
          <octave>3</octave>
          </pitch>
        <duration>2</duration>
        <voice>5</voice>
        <type>quarter</type>
        <stem>none</stem>
        <staff>2</staff>
        <notations>
          <technical>
            <string>4</string>
            <fret>0</fret>
            </technical>
          </notations>
        </note>
      <note default-x="92.49" default-y="-181.60">
        <pitch>
          <step>E</step>
          <octave>2</octave>
          </pitch>
        <duration>2</duration>
        <voice>5</voice>
        <type>quarter</type>
        <stem>none</stem>
        <staff>2</staff>
        <notations>
          <technical>
            <string>6</string>
            <fret>0</fret>
            </technical>
          </notations>
        </note>
      <note default-x="92.49" default-y="-166.60">
        <chord/>
        <pitch>
          <step>A</step>
          <octave>2</octave>
          </pitch>
        <duration>2</duration>
        <voice>5</voice>
        <type>quarter</type>
        <stem>none</stem>
        <staff>2</staff>
        <notations>
          <technical>
            <string>5</string>
            <fret>0</fret>
            </technical>
          </notations>
        </note>
      <note default-x="92.49" default-y="-151.60">
        <chord/>
        <pitch>
          <step>D</step>
          <octave>3</octave>
          </pitch>
        <duration>2</duration>
        <voice>5</voice>
        <type>quarter</type>
        <stem>none</stem>
        <staff>2</staff>
        <notations>
          <technical>
            <string>4</string>
            <fret>0</fret>
            </technical>
          </notations>
        </note>
      <note default-x="130.58" default-y="-181.60">
        <pitch>
          <step>E</step>
          <octave>2</octave>
          </pitch>
        <duration>2</duration>
        <voice>5</voice>
        <type>quarter</type>
        <stem>none</stem>
        <staff>2</staff>
        <notations>
          <technical>
            <string>6</string>
            <fret>0</fret>
            </technical>
          </notations>
        </note>
      <note default-x="130.58" default-y="-166.60">
        <chord/>
        <pitch>
          <step>A</step>
          <octave>2</octave>
          </pitch>
        <duration>2</duration>
        <voice>5</voice>
        <type>quarter</type>
        <stem>none</stem>
        <staff>2</staff>
        <notations>
          <technical>
            <string>5</string>
            <fret>0</fret>
            </technical>
          </notations>
        </note>
      <note default-x="130.58" default-y="-151.60">
        <chord/>
        <pitch>
          <step>D</step>
          <octave>3</octave>
          </pitch>
        <duration>2</duration>
        <voice>5</voice>
        <type>quarter</type>
        <stem>none</stem>
        <staff>2</staff>
        <notations>
          <technical>
            <string>4</string>
            <fret>0</fret>
            </technical>
          </notations>
        </note>
      </measure>
    <measure number="7" width="273.55">
      <print new-system="yes">
        <system-layout>
          <system-margins>
            <left-margin>0.00</left-margin>
            <right-margin>0.00</right-margin>
            </system-margins>
          <system-distance>150.00</system-distance>
          </system-layout>
        <staff-layout number="2">
          <staff-distance>65.35</staff-distance>
          </staff-layout>
        </print>
      <direction placement="above">
        <direction-type>
          <words relative-y="20.00">Once with hammer-on &amp; pull-off, once without</words>
          </direction-type>
        <staff>1</staff>
        </direction>
      <note default-x="63.57" default-y="-75.00">
        <pitch>
          <step>E</step>
          <octave>2</octave>
          </pitch>
        <duration>2</duration>
        <voice>1</voice>
        <type>quarter</type>
        <stem>up</stem>
        <staff>1</staff>
        <notations>
          <slur type="start" placement="below" number="1"/>
          <slur type="start" placement="below" number="2"/>
          </notations>
        </note>
      <note default-x="115.67" default-y="-70.00">
        <pitch>
          <step>F</step>
          <alter>1</alter>
          <octave>2</octave>
          </pitch>
        <duration>2</duration>
        <voice>1</voice>
        <type>quarter</type>
        <accidental>sharp</accidental>
        <stem>up</stem>
        <staff>1</staff>
        </note>
      <note default-x="167.76" default-y="-75.00">
        <pitch>
          <step>E</step>
          <octave>2</octave>
          </pitch>
        <duration>2</duration>
        <voice>1</voice>
        <type>quarter</type>
        <stem>up</stem>
        <staff>1</staff>
        </note>
      <note default-x="219.86" default-y="-70.00">
        <pitch>
          <step>F</step>
          <alter>1</alter>
          <octave>2</octave>
          </pitch>
        <duration>2</duration>
        <voice>1</voice>
        <type>quarter</type>
        <stem>up</stem>
        <staff>1</staff>
        <notations>
          <slur type="stop" number="1"/>
          <slur type="stop" number="2"/>
          </notations>
        </note>
      <backup>
        <duration>8</duration>
        </backup>
      <note default-x="66.07" default-y="-180.35">
        <pitch>
          <step>E</step>
          <octave>2</octave>
          </pitch>
        <duration>2</duration>
        <voice>5</voice>
        <type>quarter</type>
        <stem>none</stem>
        <staff>2</staff>
        <notations>
          <slur type="start" placement="above" number="1"/>
          <slur type="start" placement="above" number="2"/>
          <technical>
            <string>6</string>
            <fret>0</fret>
            </technical>
          </notations>
        </note>
      <note default-x="118.17" default-y="-180.35">
        <pitch>
          <step>F</step>
          <alter>1</alter>
          <octave>2</octave>
          </pitch>
        <duration>2</duration>
        <voice>5</voice>
        <type>quarter</type>
        <stem>none</stem>
        <staff>2</staff>
        <notations>
          <technical>
            <string>6</string>
            <fret>2</fret>
            </technical>
          </notations>
        </note>
      <note default-x="170.26" default-y="-180.35">
        <pitch>
          <step>E</step>
          <octave>2</octave>
          </pitch>
        <duration>2</duration>
        <voice>5</voice>
        <type>quarter</type>
        <stem>none</stem>
        <staff>2</staff>
        <notations>
          <technical>
            <string>6</string>
            <fret>0</fret>
            </technical>
          </notations>
        </note>
      <note default-x="222.36" default-y="-180.35">
        <pitch>
          <step>F</step>
          <alter>1</alter>
          <octave>2</octave>
          </pitch>
        <duration>2</duration>
        <voice>5</voice>
        <type>quarter</type>
        <stem>none</stem>
        <staff>2</staff>
        <notations>
          <slur type="stop" number="1"/>
          <slur type="stop" number="2"/>
          <technical>
            <string>6</string>
            <fret>2</fret>
            </technical>
          </notations>
        </note>
      </measure>
    <measure number="8" width="223.78">
      <note default-x="13.80" default-y="-75.00">
        <pitch>
          <step>E</step>
          <octave>2</octave>
          </pitch>
        <duration>2</duration>
        <voice>1</voice>
        <type>quarter</type>
        <stem>up</stem>
        <staff>1</staff>
        </note>
      <note default-x="65.89" default-y="-70.00">
        <pitch>
          <step>F</step>
          <alter>1</alter>
          <octave>2</octave>
          </pitch>
        <duration>2</duration>
        <voice>1</voice>
        <type>quarter</type>
        <accidental>sharp</accidental>
        <stem>up</stem>
        <staff>1</staff>
        </note>
      <note default-x="117.99" default-y="-75.00">
        <pitch>
          <step>E</step>
          <octave>2</octave>
          </pitch>
        <duration>2</duration>
        <voice>1</voice>
        <type>quarter</type>
        <stem>up</stem>
        <staff>1</staff>
        </note>
      <note default-x="170.08" default-y="-70.00">
        <pitch>
          <step>F</step>
          <alter>1</alter>
          <octave>2</octave>
          </pitch>
        <duration>2</duration>
        <voice>1</voice>
        <type>quarter</type>
        <stem>up</stem>
        <staff>1</staff>
        </note>
      <backup>
        <duration>8</duration>
        </backup>
      <note default-x="16.30" default-y="-180.35">
        <pitch>
          <step>E</step>
          <octave>2</octave>
          </pitch>
        <duration>2</duration>
        <voice>5</voice>
        <type>quarter</type>
        <stem>none</stem>
        <staff>2</staff>
        <notations>
          <technical>
            <string>6</string>
            <fret>0</fret>
            </technical>
          </notations>
        </note>
      <note default-x="68.39" default-y="-180.35">
        <pitch>
          <step>F</step>
          <alter>1</alter>
          <octave>2</octave>
          </pitch>
        <duration>2</duration>
        <voice>5</voice>
        <type>quarter</type>
        <stem>none</stem>
        <staff>2</staff>
        <notations>
          <technical>
            <string>6</string>
            <fret>2</fret>
            </technical>
          </notations>
        </note>
      <note default-x="120.49" default-y="-180.35">
        <pitch>
          <step>E</step>
          <octave>2</octave>
          </pitch>
        <duration>2</duration>
        <voice>5</voice>
        <type>quarter</type>
        <stem>none</stem>
        <staff>2</staff>
        <notations>
          <technical>
            <string>6</string>
            <fret>0</fret>
            </technical>
          </notations>
        </note>
      <note default-x="172.58" default-y="-180.35">
        <pitch>
          <step>F</step>
          <alter>1</alter>
          <octave>2</octave>
          </pitch>
        <duration>2</duration>
        <voice>5</voice>
        <type>quarter</type>
        <stem>none</stem>
        <staff>2</staff>
        <notations>
          <technical>
            <string>6</string>
            <fret>2</fret>
            </technical>
          </notations>
        </note>
      </measure>
    <measure number="9" width="210.36">
      <note>
        <rest/>
        <duration>2</duration>
        <voice>1</voice>
        <type>quarter</type>
        <staff>1</staff>
        </note>
      <note>
        <rest/>
        <duration>2</duration>
        <voice>1</voice>
        <type>quarter</type>
        <staff>1</staff>
        </note>
      <direction placement="above">
        <direction-type>
          <words relative-y="20.00">Once with slide-up, once without
</words>
          </direction-type>
        <staff>1</staff>
        </direction>
      <note default-x="109.85" default-y="-75.00">
        <pitch>
          <step>E</step>
          <octave>2</octave>
          </pitch>
        <duration>2</duration>
        <voice>1</voice>
        <type>quarter</type>
        <stem>up</stem>
        <staff>1</staff>
        <notations>
          <articulations>
            <doit/>
            <doit/>
            </articulations>
          </notations>
        </note>
      <note default-x="159.30" default-y="-55.00">
        <pitch>
          <step>B</step>
          <octave>2</octave>
          </pitch>
        <duration>2</duration>
        <voice>1</voice>
        <type>quarter</type>
        <stem>up</stem>
        <staff>1</staff>
        </note>
      <backup>
        <duration>8</duration>
        </backup>
      <note>
        <rest/>
        <duration>2</duration>
        <voice>5</voice>
        <type>quarter</type>
        <staff>2</staff>
        </note>
      <note>
        <rest/>
        <duration>2</duration>
        <voice>5</voice>
        <type>quarter</type>
        <staff>2</staff>
        </note>
      <note default-x="112.35" default-y="-180.35">
        <pitch>
          <step>E</step>
          <octave>2</octave>
          </pitch>
        <duration>2</duration>
        <voice>5</voice>
        <type>quarter</type>
        <stem>none</stem>
        <staff>2</staff>
        <notations>
          <articulations>
            <doit/>
            <doit/>
            </articulations>
          <technical>
            <string>6</string>
            <fret>0</fret>
            </technical>
          </notations>
        </note>
      <note default-x="161.80" default-y="-180.35">
        <pitch>
          <step>B</step>
          <octave>2</octave>
          </pitch>
        <duration>2</duration>
        <voice>5</voice>
        <type>quarter</type>
        <stem>none</stem>
        <staff>2</staff>
        <notations>
          <technical>
            <string>6</string>
            <fret>7</fret>
            </technical>
          </notations>
        </note>
      </measure>
    <measure number="10" width="369.81">
      <note default-x="13.80" default-y="-75.00">
        <pitch>
          <step>E</step>
          <octave>2</octave>
          </pitch>
        <duration>1</duration>
        <voice>1</voice>
        <type>eighth</type>
        <stem>up</stem>
        <staff>1</staff>
        <beam number="1">begin</beam>
        </note>
      <note default-x="58.10" default-y="-70.00">
        <pitch>
          <step>F</step>
          <octave>2</octave>
          </pitch>
        <duration>1</duration>
        <voice>1</voice>
        <type>eighth</type>
        <stem>up</stem>
        <staff>1</staff>
        <beam number="1">continue</beam>
        </note>
      <note default-x="102.40" default-y="-70.00">
        <pitch>
          <step>F</step>
          <alter>1</alter>
          <octave>2</octave>
          </pitch>
        <duration>1</duration>
        <voice>1</voice>
        <type>eighth</type>
        <accidental>sharp</accidental>
        <stem>up</stem>
        <staff>1</staff>
        <beam number="1">continue</beam>
        </note>
      <note default-x="146.70" default-y="-65.00">
        <pitch>
          <step>G</step>
          <octave>2</octave>
          </pitch>
        <duration>1</duration>
        <voice>1</voice>
        <type>eighth</type>
        <stem>up</stem>
        <staff>1</staff>
        <beam number="1">end</beam>
        </note>
      <note default-x="191.00" default-y="-65.00">
        <pitch>
          <step>G</step>
          <alter>1</alter>
          <octave>2</octave>
          </pitch>
        <duration>1</duration>
        <voice>1</voice>
        <type>eighth</type>
        <accidental>sharp</accidental>
        <stem>up</stem>
        <staff>1</staff>
        <beam number="1">begin</beam>
        </note>
      <note default-x="235.31" default-y="-60.00">
        <pitch>
          <step>A</step>
          <octave>2</octave>
          </pitch>
        <duration>1</duration>
        <voice>1</voice>
        <type>eighth</type>
        <stem>up</stem>
        <staff>1</staff>
        <beam number="1">continue</beam>
        </note>
      <note default-x="279.61" default-y="-55.00">
        <pitch>
          <step>B</step>
          <alter>-1</alter>
          <octave>2</octave>
          </pitch>
        <duration>1</duration>
        <voice>1</voice>
        <type>eighth</type>
        <accidental>flat</accidental>
        <stem>up</stem>
        <staff>1</staff>
        <beam number="1">continue</beam>
        </note>
      <note default-x="323.91" default-y="-55.00">
        <pitch>
          <step>B</step>
          <octave>2</octave>
          </pitch>
        <duration>1</duration>
        <voice>1</voice>
        <type>eighth</type>
        <accidental>natural</accidental>
        <stem>up</stem>
        <staff>1</staff>
        <beam number="1">end</beam>
        </note>
      <backup>
        <duration>8</duration>
        </backup>
      <note default-x="16.30" default-y="-180.35">
        <pitch>
          <step>E</step>
          <octave>2</octave>
          </pitch>
        <duration>1</duration>
        <voice>5</voice>
        <type>eighth</type>
        <stem>none</stem>
        <staff>2</staff>
        <notations>
          <technical>
            <string>6</string>
            <fret>0</fret>
            </technical>
          </notations>
        </note>
      <note default-x="60.60" default-y="-180.35">
        <pitch>
          <step>F</step>
          <octave>2</octave>
          </pitch>
        <duration>1</duration>
        <voice>5</voice>
        <type>eighth</type>
        <stem>none</stem>
        <staff>2</staff>
        <notations>
          <technical>
            <string>6</string>
            <fret>1</fret>
            </technical>
          </notations>
        </note>
      <note default-x="104.90" default-y="-180.35">
        <pitch>
          <step>F</step>
          <alter>1</alter>
          <octave>2</octave>
          </pitch>
        <duration>1</duration>
        <voice>5</voice>
        <type>eighth</type>
        <stem>none</stem>
        <staff>2</staff>
        <notations>
          <technical>
            <string>6</string>
            <fret>2</fret>
            </technical>
          </notations>
        </note>
      <note default-x="149.20" default-y="-180.35">
        <pitch>
          <step>G</step>
          <octave>2</octave>
          </pitch>
        <duration>1</duration>
        <voice>5</voice>
        <type>eighth</type>
        <stem>none</stem>
        <staff>2</staff>
        <notations>
          <technical>
            <string>6</string>
            <fret>3</fret>
            </technical>
          </notations>
        </note>
      <note default-x="193.50" default-y="-180.35">
        <pitch>
          <step>G</step>
          <alter>1</alter>
          <octave>2</octave>
          </pitch>
        <duration>1</duration>
        <voice>5</voice>
        <type>eighth</type>
        <stem>none</stem>
        <staff>2</staff>
        <notations>
          <technical>
            <string>6</string>
            <fret>4</fret>
            </technical>
          </notations>
        </note>
      <note default-x="237.81" default-y="-180.35">
        <pitch>
          <step>A</step>
          <octave>2</octave>
          </pitch>
        <duration>1</duration>
        <voice>5</voice>
        <type>eighth</type>
        <stem>none</stem>
        <staff>2</staff>
        <notations>
          <technical>
            <string>6</string>
            <fret>5</fret>
            </technical>
          </notations>
        </note>
      <note default-x="282.11" default-y="-180.35">
        <pitch>
          <step>B</step>
          <alter>-1</alter>
          <octave>2</octave>
          </pitch>
        <duration>1</duration>
        <voice>5</voice>
        <type>eighth</type>
        <stem>none</stem>
        <staff>2</staff>
        <notations>
          <technical>
            <string>6</string>
            <fret>6</fret>
            </technical>
          </notations>
        </note>
      <note default-x="326.41" default-y="-180.35">
        <pitch>
          <step>B</step>
          <octave>2</octave>
          </pitch>
        <duration>1</duration>
        <voice>5</voice>
        <type>eighth</type>
        <stem>none</stem>
        <staff>2</staff>
        <notations>
          <technical>
            <string>6</string>
            <fret>7</fret>
            </technical>
          </notations>
        </note>
      </measure>
    <measure number="11" width="559.82">
      <print new-system="yes">
        <system-layout>
          <system-margins>
            <left-margin>0.00</left-margin>
            <right-margin>0.00</right-margin>
            </system-margins>
          <system-distance>150.00</system-distance>
          </system-layout>
        <staff-layout number="2">
          <staff-distance>84.70</staff-distance>
          </staff-layout>
        </print>
      <direction placement="above">
        <direction-type>
          <words default-y="26.90" relative-y="20.00">Once with bend, once without</words>
          </direction-type>
        <staff>1</staff>
        </direction>
      <note default-x="63.57" default-y="-75.00">
        <pitch>
          <step>E</step>
          <octave>2</octave>
          </pitch>
        <duration>2</duration>
        <voice>1</voice>
        <type>quarter</type>
        <stem>up</stem>
        <staff>1</staff>
        </note>
      <note>
        <rest/>
        <duration>2</duration>
        <voice>1</voice>
        <type>quarter</type>
        <staff>1</staff>
        </note>
      <note default-x="310.90" default-y="-75.00">
        <pitch>
          <step>E</step>
          <octave>2</octave>
          </pitch>
        <duration>2</duration>
        <voice>1</voice>
        <type>quarter</type>
        <stem>up</stem>
        <staff>1</staff>
        </note>
      <note>
        <rest/>
        <duration>2</duration>
        <voice>1</voice>
        <type>quarter</type>
        <staff>1</staff>
        </note>
      <backup>
        <duration>8</duration>
        </backup>
      <note default-x="66.07" default-y="-199.70">
        <pitch>
          <step>E</step>
          <octave>2</octave>
          </pitch>
        <duration>2</duration>
        <voice>5</voice>
        <type>quarter</type>
        <stem>none</stem>
        <staff>2</staff>
        <notations>
          <technical>
            <string>6</string>
            <fret>0</fret>
            </technical>
          </notations>
        </note>
      <note>
        <rest/>
        <duration>2</duration>
        <voice>5</voice>
        <type>quarter</type>
        <staff>2</staff>
        </note>
      <note default-x="313.40" default-y="-199.70">
        <pitch>
          <step>E</step>
          <octave>2</octave>
          </pitch>
        <duration>2</duration>
        <voice>5</voice>
        <type>quarter</type>
        <stem>none</stem>
        <staff>2</staff>
        <notations>
          <technical>
            <string>6</string>
            <fret>0</fret>
            </technical>
          </notations>
        </note>
      <note>
        <rest/>
        <duration>2</duration>
        <voice>5</voice>
        <type>quarter</type>
        <staff>2</staff>
        </note>
      </measure>
    <measure number="12" width="517.67">
      <note default-x="13.80" default-y="-75.00">
        <pitch>
          <step>E</step>
          <octave>2</octave>
          </pitch>
        <duration>2</duration>
        <voice>1</voice>
        <type>quarter</type>
        <stem>up</stem>
        <staff>1</staff>
        </note>
      <note default-x="137.12" default-y="-70.00">
        <pitch>
          <step>F</step>
          <octave>2</octave>
          </pitch>
        <duration>2</duration>
        <voice>1</voice>
        <type>quarter</type>
        <stem>up</stem>
        <staff>1</staff>
        </note>
      <note default-x="260.44" default-y="-75.00">
        <pitch>
          <step>E</step>
          <octave>2</octave>
          </pitch>
        <duration>2</duration>
        <voice>1</voice>
        <type>quarter</type>
        <stem>up</stem>
        <staff>1</staff>
        </note>
      <note default-x="383.76" default-y="-70.00">
        <pitch>
          <step>F</step>
          <alter>1</alter>
          <octave>2</octave>
          </pitch>
        <duration>2</duration>
        <voice>1</voice>
        <type>quarter</type>
        <accidental>sharp</accidental>
        <stem>up</stem>
        <staff>1</staff>
        </note>
      <backup>
        <duration>8</duration>
        </backup>
      <note default-x="16.30" default-y="-199.70">
        <pitch>
          <step>E</step>
          <octave>2</octave>
          </pitch>
        <duration>2</duration>
        <voice>5</voice>
        <type>quarter</type>
        <stem>none</stem>
        <staff>2</staff>
        <notations>
          <technical>
            <string>6</string>
            <fret>0</fret>
            </technical>
          </notations>
        </note>
      <note default-x="139.62" default-y="-199.70">
        <pitch>
          <step>F</step>
          <octave>2</octave>
          </pitch>
        <duration>2</duration>
        <voice>5</voice>
        <type>quarter</type>
        <stem>none</stem>
        <staff>2</staff>
        <notations>
          <technical>
            <string>6</string>
            <fret>1</fret>
            </technical>
          </notations>
        </note>
      <note default-x="262.94" default-y="-199.70">
        <pitch>
          <step>E</step>
          <octave>2</octave>
          </pitch>
        <duration>2</duration>
        <voice>5</voice>
        <type>quarter</type>
        <stem>none</stem>
        <staff>2</staff>
        <notations>
          <technical>
            <string>6</string>
            <fret>0</fret>
            </technical>
          </notations>
        </note>
      <note default-x="386.26" default-y="-199.70">
        <pitch>
          <step>F</step>
          <alter>1</alter>
          <octave>2</octave>
          </pitch>
        <duration>2</duration>
        <voice>5</voice>
        <type>quarter</type>
        <stem>none</stem>
        <staff>2</staff>
        <notations>
          <technical>
            <string>6</string>
            <fret>2</fret>
            </technical>
          </notations>
        </note>
      <barline location="right">
        <bar-style>light-heavy</bar-style>
        </barline>
      </measure>
    </part>
  </score-partwise>
